<svg width="508" height="508" viewBox="0 0 508 508" fill="none"
    xmlns="http://www.w3.org/2000/svg">
    <g filter="url(#filter0_d_3_6)">
        <rect x="4" width="500" height="500" rx="100" fill="#8E64FF"/>
    </g>
    <path d="M302.685 400.486C316.493 400.486 327.831 389.258 326.275 375.539C323.932 354.885 318.687 334.617 310.658 315.337C299.417 288.342 282.941 263.813 262.169 243.152C241.398 222.49 216.739 206.101 189.601 194.919C170.178 186.916 149.758 181.693 128.949 179.37C115.227 177.838 104 189.175 104 202.982L104 375.486C104 389.293 115.193 400.486 129 400.486H302.685Z" fill="#FAFAFA"/>
    <path d="M296.009 100C282.202 100 270.77 111.291 273.372 124.851C275.069 133.694 277.671 142.363 281.151 150.72C287.847 166.801 297.662 181.412 310.034 193.719C322.407 206.026 337.095 215.789 353.261 222.45C361.703 225.928 370.461 228.525 379.395 230.212C392.962 232.775 404.25 221.346 404.25 207.538L404.25 125C404.25 111.193 393.058 100 379.25 100L296.009 100Z" fill="#FAFAFA"/>
    <defs>
        <filter id="filter0_d_3_6" x="0" y="0" width="508" height="508" filterUnits="userSpaceOnUse" color-interpolation-filters="sRGB">
            <feFlood flood-opacity="0" result="BackgroundImageFix"/>
            <feColorMatrix in="SourceAlpha" type="matrix" values="0 0 0 0 0 0 0 0 0 0 0 0 0 0 0 0 0 0 127 0" result="hardAlpha"/>
            <feOffset dy="4"/>
            <feGaussianBlur stdDeviation="2"/>
            <feComposite in2="hardAlpha" operator="out"/>
            <feColorMatrix type="matrix" values="0 0 0 0 0 0 0 0 0 0 0 0 0 0 0 0 0 0 0.25 0"/>
            <feBlend mode="normal" in2="BackgroundImageFix" result="effect1_dropShadow_3_6"/>
            <feBlend mode="normal" in="SourceGraphic" in2="effect1_dropShadow_3_6" result="shape"/>
        </filter>
    </defs>
</svg>
